<?xml version="1.0" encoding="utf-8"?>
<!-- Generator: Adobe Illustrator 24.3.0, SVG Export Plug-In . SVG Version: 6.00 Build 0)  -->
<svg version="1.1" id="Capa_1" xmlns="http://www.w3.org/2000/svg" xmlns:xlink="http://www.w3.org/1999/xlink" x="0px" y="0px"
	 viewBox="0 0 800 800" style="enable-background:new 0 0 800 800;" xml:space="preserve">
<style type="text/css">
	.st0{fill:#FFFFFF;stroke:#FFFFFF;stroke-width:28.5164;stroke-miterlimit:114.0657;}
</style>
<g id="SVGRepo_bgCarrier">
</g>
<g id="SVGRepo_tracerCarrier">
</g>
<g id="SVGRepo_iconCarrier">
	<g>
		<path class="st0" d="M747.7,96.6v279.6c0,8-6.4,14.4-14.4,14.4H353c-8,0-14.4-6.5-14.4-14.4v-22.1l28.8-19.3v27h351.4V111H367.4
			v105.5c-1.3,1-2.6,1.8-3.8,2.9l-4,2.8c-4.9-12.7-12.3-22.8-20.9-31V96.6c0-8,6.5-14.4,14.4-14.4h380.2
			C741.2,82.2,747.7,88.6,747.7,96.6z M407.2,286.1l17.3-11.6h0c0-0.1,0.1-0.1,0.1-0.2c8.8-8.7,10.1-21.7,4.7-31.9L569,147.7
			l-6.3-9.4l-140.9,95.6c-4.4-3.2-9.4-5.2-14.5-5.4c-7.4-0.2-14.9,2.2-20.5,7.9c0,0-0.1,0.1-0.2,0.1l-3.4,2.4l-31.3,21.4v-9.1
			c-5.8-69.1-85.9-68.1-85.9-68.1h-34.7l-29.1,48l-29.3-47.9h-33.3c-90.4,1.7-87.2,68-87.2,68v154.9h0c0,0.4,0,0.9,0,1.2
			c0,14.7,11.9,26.6,26.6,26.6c14.6,0,26.5-11.9,26.5-26.6c0-0.3,0-0.8,0-1.2h0V262.8h16.6L121.9,714c0,19.8,16.1,36,35.9,36
			c19.8,0,35.9-16.1,35.9-36V422.9h16v291.5l0.3,0.3c0.2,19.5,16.1,35.3,35.7,35.3c19.7,0,35.7-16,35.7-35.7l-0.1-452.2h17.3v47.1
			c0,0,0,0.2,0,0.2c0,14.6,11.9,26.6,26.5,26.6c4.3,0,8.2-1.2,11.9-3.1l0.1,0.2l45.9-30.8L407.2,286.1z M201.5,171.6
			c33.6,0,60.8-27.2,60.8-60.8S235.1,50,201.5,50s-60.8,27.2-60.8,60.8S167.9,171.6,201.5,171.6z"/>
	</g>
</g>
</svg>
