<?xml version="1.0" encoding="utf-8"?>
<!-- Generator: Adobe Illustrator 24.3.0, SVG Export Plug-In . SVG Version: 6.00 Build 0)  -->
<svg version="1.1" id="Capa_1" xmlns="http://www.w3.org/2000/svg" xmlns:xlink="http://www.w3.org/1999/xlink" x="0px" y="0px"
	 viewBox="0 0 800 800" style="enable-background:new 0 0 800 800;" xml:space="preserve">
<style type="text/css">
	.st0{fill:#FFFFFF;}
</style>
<g id="SVGRepo_bgCarrier">
</g>
<g id="SVGRepo_tracerCarrier">
</g>
<g>
	<path class="st0" d="M455.6,485.6c8.4-14.1,20.8-21.3,37.3-21.5c16.4-0.2,24.7-8.6,25-25c0.2-16.4,7.4-28.8,21.5-37.2
		c14.1-8.4,17.2-19.8,9.1-34.1c-8-14.3-8-28.6,0-43c8-14.3,5-25.6-9.1-34.1c-14.1-8.4-21.2-20.8-21.5-37.3c-0.3-16.4-8.6-24.8-25-25
		c-16.4-0.2-28.8-7.4-37.3-21.5c-8.4-14.1-19.8-17.2-34.1-9.1c-14.3,8-28.7,8-43,0c-14.3-8-25.7-5-34.1,9.1
		c-8.4,14.1-20.8,21.3-37.2,21.5c-16.4,0.2-24.7,8.6-25,25c-0.3,16.5-7.4,28.8-21.5,37.3c-14.1,8.4-17.2,19.7-9.1,34.1
		c8,14.4,8,28.7,0,43c-8.1,14.4-5,25.7,9.1,34.1c14.1,8.4,21.2,20.8,21.5,37.2c0.2,16.5,8.6,24.8,25,25c16.4,0.2,28.8,7.4,37.3,21.5
		c8.4,14.1,19.8,17.2,34.1,9.1c14.3-7.9,28.7-7.9,43,0C435.8,502.7,447.2,499.7,455.6,485.6z M400.1,436.2c-49.7,0-90-40.3-90-90
		c0-49.7,40.3-89.9,90-89.9c49.7,0,89.9,40.3,89.9,89.9C490,395.9,449.7,436.2,400.1,436.2z"/>
	<path class="st0" d="M305.7,477.3c-17.3,0-19.6-8-19.6-8l-67.5,132.7l54.1-6.1l29.9,45c0,0,62.4-130.1,62.4-129.2
		C332.7,510.8,345.6,478.1,305.7,477.3z"/>
	<path class="st0" d="M513,474.4c-49.3,5.2-39.3,17.4-50.6,26.9c-13,13.8-29.2,11.1-29.2,11.1l76.1,131l18.7-48.5l53.2,6.9
		L513,474.4z"/>
	<polygon class="st0" points="418.8,326.4 400,288.3 381.2,326.4 339,332.5 369.5,362.2 362.3,404.2 400,384.4 437.7,404.2 
		430.5,362.2 461,332.5 	"/>
</g>
</svg>
