<?xml version="1.0" encoding="utf-8"?>
<!-- Generator: Adobe Illustrator 24.3.0, SVG Export Plug-In . SVG Version: 6.00 Build 0)  -->
<svg version="1.1" id="Capa_1" xmlns="http://www.w3.org/2000/svg" xmlns:xlink="http://www.w3.org/1999/xlink" x="0px" y="0px"
	 viewBox="0 0 800 800" style="enable-background:new 0 0 800 800;" xml:space="preserve">
<style type="text/css">
	.st0{fill:#FFFFFF;}
</style>
<g id="SVGRepo_bgCarrier">
</g>
<g id="SVGRepo_tracerCarrier">
</g>
<g>
	<path class="st0" d="M648.3,192.3V392c0,5.7-4.6,10.3-10.3,10.3H366.4c-5.7,0-10.3-4.6-10.3-10.3v-15.8l20.6-13.8v19.3h251V202.6
		h-251v75.4c-0.9,0.7-1.9,1.3-2.7,2.1l-2.9,2c-3.5-9.1-8.8-16.3-15-22.1v-67.6c0-5.7,4.6-10.3,10.3-10.3H638
		C643.7,182,648.3,186.6,648.3,192.3z M405.1,327.6l12.3-8.3h0c0-0.1,0.1-0.1,0.1-0.1c6.3-6.2,7.2-15.5,3.4-22.8l99.8-67.7l-4.5-6.7
		l-100.6,68.3c-3.2-2.3-6.7-3.7-10.4-3.8c-5.3-0.2-10.6,1.6-14.7,5.6c0,0-0.1,0.1-0.1,0.1l-2.5,1.7l-22.3,15.3v-6.5
		c-4.2-49.4-61.3-48.6-61.3-48.6h-24.8l-20.8,34.3l-20.9-34.2h-23.8c-64.5,1.2-62.3,48.6-62.3,48.6v110.6h0c0,0.3,0,0.6,0,0.9
		c0,10.5,8.5,19,19,19c10.5,0,19-8.5,19-19c0-0.2,0-0.6,0-0.9h0V311h11.9l-0.1,322.3c0,14.2,11.5,25.7,25.6,25.7
		c14.2,0,25.6-11.5,25.6-25.7v-208h11.4v208.2l0.2,0.2c0.2,13.9,11.5,25.2,25.5,25.2c14.1,0,25.5-11.5,25.5-25.5l-0.1-323h12.4v33.6
		c0,0,0,0.1,0,0.2c0,10.5,8.5,19,18.9,19c3.1,0,5.8-0.9,8.5-2.2l0.1,0.1l32.8-22L405.1,327.6z M258.2,245.9
		c24,0,43.4-19.4,43.4-43.4S282.2,159,258.2,159c-24,0-43.4,19.5-43.4,43.4S234.2,245.9,258.2,245.9z"/>
</g>
</svg>
