<?xml version="1.0" encoding="utf-8"?>
<!-- Generator: Adobe Illustrator 24.3.0, SVG Export Plug-In . SVG Version: 6.00 Build 0)  -->
<svg version="1.1" id="Capa_1" xmlns="http://www.w3.org/2000/svg" xmlns:xlink="http://www.w3.org/1999/xlink" x="0px" y="0px"
	 viewBox="0 0 800 800" style="enable-background:new 0 0 800 800;" xml:space="preserve">
<style type="text/css">
	.st0{fill:#FFFFFF;}
</style>
<g id="SVGRepo_bgCarrier">
</g>
<g id="SVGRepo_tracerCarrier">
</g>
<g>
	<g>
		<path class="st0" d="M647.1,337.2c-2.3-17.5-2.7-47.7,13.6-57.8c0.3-0.2,0.5-0.5,0.8-0.7c13.3-4.3,22.5-10.2,15.3-18.3
			l-196.3-59.1l-317.9,44.2c0,0-36.4,5.2-33.1,61.8c1.8,30.8,11.4,45.9,19.9,53.3l-26.1,7.9c-7.2,8,2,14,15.3,18.3
			c0.3,0.2,0.5,0.5,0.8,0.7c16.3,10.1,16,40.3,13.6,57.9c-58.4,16.6-37.5,22-37.5,22l12.8,3.1c-9,8.1-18,23.6-16.3,52.9
			c3.3,56.5,33.2,60.4,33.2,60.4l208,67.6l314-76c0,0,21-5.4-37.5-22c-2.4-17.5-2.7-47.7,13.6-57.8c0.3-0.2,0.5-0.5,0.8-0.7
			c13.3-4.3,22.5-10.2,15.3-18.3l-13.6-4.1c9.1-5.5,22.8-19.8,24.9-57.1c1.5-25.6-5.2-40.6-12.9-49.5l27-6.5
			C684.6,359.2,705.6,353.8,647.1,337.2z M384.5,336.5l52.8-10.9L615.7,289l26.6-5.5c-8.5,15.5-8.1,36.8-6.7,50.5
			c0.3,3.1,0.7,5.9,1,8.1l-29.1,7.2l-225.2,56L384.5,336.5z M157.7,391.5l26.6,5.5l171.3,35.2l15,3.1l0,0l0,0l44.9,9.2l2.2,68.8
			l-231.5-57.6l-22.8-5.7c0.3-2.2,0.7-5,1-8.1C165.9,428.3,166.2,407.1,157.7,391.5z M147.4,304.5c-0.3-15,2.4-25.9,7.8-31.4
			c3.4-3.5,7.5-4.3,10.3-4.3c1.5,0,2.5,0.2,2.6,0.2l137,44.7l68.3,22.3l-2.2,69.3l-191.7-53.7l-10.1-2.8c-0.4-0.1-0.9-0.2-1.3-0.2
			C167.3,348.4,148.3,346.6,147.4,304.5z M353.6,621.2l-201.8-56.6c-0.4-0.1-0.9-0.2-1.3-0.2c-0.8-0.1-19.8-1.8-20.7-43.9
			c-0.3-15.1,2.4-25.9,7.8-31.5c3.5-3.5,7.5-4.3,10.3-4.3c1.5,0,2.5,0.2,2.6,0.2c0,0,0,0,0,0l205.3,66.9L353.6,621.2z M618.1,550
			c0.3,3.1,0.7,5.9,1,8.1l-254.3,63.3l2.2-68.8l54.4-11.2l8,1.9l30.1-9.8L598.2,505l26.6-5.5C616.3,515,616.6,536.3,618.1,550z
			 M632.1,456.4c-0.5,0-0.9,0.1-1.4,0.2l-19.2,5.4l-182.6,51.2l-2.2-69.3l59.9-19.5l145.1-47.3c0,0,7.6-1.7,13.2,4
			c5.4,5.5,8.1,16.4,7.8,31.4C651.7,454.6,632.8,456.4,632.1,456.4z"/>
	</g>
</g>
</svg>
